<svg width="200" height="200" viewBox="0 0 200 200" fill="none" xmlns="http://www.w3.org/2000/svg">
<path d="M157.408 11.1067H42.5928C25.2061 11.1067 11.1113 25.2015 11.1113 42.5884V152.959C11.1113 170.346 25.2061 184.441 42.5928 184.441H157.408C174.794 184.441 188.889 170.346 188.889 152.959V42.5884C188.889 25.2015 174.794 11.1067 157.408 11.1067Z" fill="#470137"/>
<path d="M104.554 56.6954L82.3715 93.3082L106.104 132.187C106.256 132.459 106.299 132.779 106.223 133.081C106.143 133.361 105.866 133.185 105.389 133.263H88.454C87.2612 133.263 86.4264 133.221 85.9493 132.425C84.3579 129.325 82.7678 126.244 81.179 123.183C79.5875 120.123 77.8981 117.002 76.1106 113.821C74.3217 110.642 72.5527 107.422 70.8035 104.161H70.6842C69.0927 107.342 67.443 110.522 65.7348 113.702C64.0244 116.883 62.3349 120.043 60.6665 123.183C58.9969 126.325 57.2875 129.445 55.5384 132.545C55.2198 133.26 54.6624 133.334 53.8685 133.334H37.5303C37.2134 133.334 37.0344 133.46 36.9935 133.141C36.9486 132.85 37.0124 132.553 37.1725 132.306L60.1894 94.5007L37.7686 56.576C37.5303 56.2594 37.4905 56.001 37.6492 55.8009C37.7373 55.6992 37.8478 55.6193 37.972 55.5675C38.0962 55.5157 38.2308 55.4936 38.365 55.5027H55.1804C55.547 55.4825 55.9136 55.5436 56.2538 55.6817C56.539 55.8433 56.7836 56.0676 56.9693 56.3377C58.4005 59.5184 59.9906 62.6986 61.7396 65.8784C63.4876 69.0593 65.2567 72.1998 67.0467 75.2999C68.8356 78.4007 70.4854 81.5412 71.996 84.7215H72.1154C73.7047 81.4622 75.3147 78.282 76.9454 75.1807C78.5741 72.08 80.2436 68.9593 81.9541 65.8187C83.6631 62.6789 85.3128 59.5582 86.9034 56.4569C86.9949 56.1625 87.1589 55.896 87.3805 55.6817C87.6749 55.5322 88.006 55.4701 88.3346 55.5027H103.957C104.108 55.4655 104.267 55.4807 104.408 55.5457C104.549 55.6108 104.663 55.7218 104.733 55.8606C104.802 55.9993 104.822 56.1576 104.79 56.3093C104.757 56.461 104.674 56.5972 104.554 56.6954Z" fill="#FF61F6"/>
<path d="M138.767 134.808C133.278 134.892 127.839 133.751 122.846 131.469C118.194 129.316 114.306 125.802 111.695 121.391C108.991 116.9 107.64 111.275 107.64 104.516C107.595 99.0424 108.994 93.6537 111.695 88.8929C114.478 84.0435 118.569 80.0758 123.502 77.4439C128.669 74.5816 134.91 73.1505 142.225 73.1506C142.622 73.1506 143.139 73.1705 143.776 73.2103C144.411 73.2511 145.166 73.3107 146.042 73.3891V49.8949C146.042 49.3395 146.28 49.0601 146.757 49.0601H161.784C161.881 49.0462 161.98 49.0551 162.073 49.0861C162.166 49.1172 162.251 49.1695 162.321 49.2389C162.39 49.3083 162.442 49.3929 162.473 49.4861C162.504 49.5792 162.513 49.6783 162.5 49.7755V120.258C162.5 121.611 162.559 123.082 162.678 124.671C162.798 126.262 162.897 127.693 162.977 128.964C162.991 129.212 162.931 129.458 162.803 129.671C162.675 129.884 162.486 130.053 162.261 130.157C158.384 131.774 154.347 132.973 150.216 133.735C146.439 134.432 142.608 134.791 138.767 134.808ZM146.042 120.02V87.4618C145.397 87.2872 144.739 87.1675 144.074 87.1039C143.262 87.0223 142.445 86.9825 141.629 86.9848C138.735 86.956 135.875 87.6097 133.281 88.8929C130.754 90.1488 128.597 92.0391 127.02 94.3788C125.389 96.764 124.574 99.9045 124.575 103.8C124.517 106.4 124.941 108.988 125.827 111.433C126.548 113.403 127.687 115.193 129.167 116.68C130.583 118.049 132.297 119.069 134.175 119.662C136.159 120.304 138.232 120.626 140.317 120.616C141.43 120.616 142.463 120.576 143.418 120.497C144.307 120.43 145.186 120.27 146.042 120.02Z" fill="#FF61F6"/>
</svg>
