<svg width="47" height="32" viewBox="0 0 47 32" fill="none" xmlns="http://www.w3.org/2000/svg">
<path d="M42.24 4.26667H28.8V0H42.24V4.26667ZM45.504 25.6C44.736 28.3733 41.664 32 35.712 32C29.76 32 24.96 28.3733 24.96 19.84C24.96 11.52 29.376 7.25333 35.52 7.25333C41.472 7.25333 45.12 11.0933 45.888 16.64C46.08 17.7067 46.08 19.2 46.08 21.3333H30.72C30.912 28.16 37.44 28.3733 39.552 25.6H45.504ZM30.72 17.0667H40.32C40.128 13.8667 38.208 12.3733 35.52 12.3733C32.832 12.3733 31.296 13.8667 30.72 17.0667ZM12.48 32H0V0H13.44C24 0.213333 24.192 11.52 18.624 14.72C25.152 17.4933 25.344 32 12.48 32ZM5.76 12.8H12.672C17.472 12.8 18.24 6.4 12.096 6.4H5.76V12.8ZM12.288 19.2H5.76V25.6H12.096C18.048 25.6 17.664 19.2 12.288 19.2Z" fill="white"/>
</svg>
