<svg width="200" height="200" viewBox="0 0 200 200" fill="none" xmlns="http://www.w3.org/2000/svg">
<path d="M41.5407 20.3125C30.1288 20.3125 21.6847 30.3006 22.0627 41.1328C22.4254 51.5396 21.9542 65.0176 18.561 76.0091C15.1576 87.0328 9.40169 94.0159 0 94.9125V105.035C9.40169 105.931 15.1576 112.914 18.561 123.938C21.9542 134.929 22.4254 148.407 22.0627 158.814C21.6847 169.645 30.1288 179.635 41.5424 179.635H158.475C169.886 179.635 178.329 169.646 177.951 158.814C177.588 148.407 178.059 134.929 181.453 123.938C184.858 112.914 190.598 105.931 200 105.035V94.9125C190.598 94.0159 184.858 87.0328 181.453 76.0091C178.059 65.0193 177.588 51.5396 177.951 41.1328C178.329 30.3023 169.886 20.3125 158.475 20.3125H41.539H41.5407ZM135.593 118.385C135.593 133.301 124.468 142.346 106.005 142.346H74.5763C72.7041 142.346 71.1864 140.829 71.1864 138.957V60.9905C71.1864 59.1183 72.7041 57.6006 74.5763 57.6006H105.825C121.22 57.6006 131.324 65.9396 131.324 78.743C131.324 87.7295 124.527 95.7752 115.868 97.1837V97.6532C127.656 98.9464 135.593 107.109 135.593 118.385ZM102.578 68.3464H84.6576V93.6583H99.7508C111.419 93.6583 117.853 88.96 117.853 80.5616C117.853 72.6922 112.32 68.3464 102.578 68.3464ZM84.6576 103.702V131.597H103.237C115.385 131.597 121.82 126.723 121.82 117.562C121.82 108.399 115.205 103.701 102.456 103.701H84.6576V103.702Z" fill="#7E13F8"/>
<path d="M135.593 118.385C135.593 133.301 124.468 142.346 106.005 142.346H74.5764C72.7042 142.346 71.1865 140.829 71.1865 138.957V60.9904C71.1865 59.1183 72.7042 57.6006 74.5764 57.6006H105.826C121.22 57.6006 131.324 65.9396 131.324 78.743C131.324 87.7294 124.527 95.7752 115.868 97.1836V97.6531C127.656 98.9464 135.593 107.109 135.593 118.385ZM102.578 68.3463H84.6577V93.6582H99.7509C111.419 93.6582 117.853 88.9599 117.853 80.5616C117.853 72.6921 112.32 68.3463 102.578 68.3463ZM84.6577 103.702V131.597H103.237C115.385 131.597 121.82 126.723 121.82 117.562C121.82 108.399 115.205 103.701 102.456 103.701H84.6577V103.702Z" fill="white"/>
</svg>
