<svg width="200" height="200" viewBox="0 0 200 200" fill="none" xmlns="http://www.w3.org/2000/svg">
<path fill-rule="evenodd" clip-rule="evenodd" d="M27.7681 180.006L11.7188 0H188.076L172.009 179.977L99.7906 200L27.7681 180.006Z" fill="#0071BC"/>
<path fill-rule="evenodd" clip-rule="evenodd" d="M100.046 184.686L158.33 168.652L171.985 14.9907H100.046V184.686Z" fill="#29ABE2"/>
<path fill-rule="evenodd" clip-rule="evenodd" d="M48.4561 81.1243L50.3894 103.169L100.046 81.1243V59.0439L48.4561 81.1243Z" fill="#B3B3B3"/>
<path fill-rule="evenodd" clip-rule="evenodd" d="M155.042 35.4741L100.046 59.0438V81.1242L153.146 57.5188L155.042 35.4741Z" fill="#E6E6E6"/>
<path fill-rule="evenodd" clip-rule="evenodd" d="M100.045 138.804L99.8747 138.829L75.2486 132.216L73.6398 114.632H51.4766L54.5694 149.273L99.8698 161.816L100.045 161.775V138.804Z" fill="#E6E6E6"/>
<path fill-rule="evenodd" clip-rule="evenodd" d="M100.046 81.1243V103.169H127.007L124.557 131.991L100.046 138.823V161.792L145.196 149.249L151.141 81.1243H100.046Z" fill="white"/>
<path fill-rule="evenodd" clip-rule="evenodd" d="M100.046 81.1243H48.4561L50.3894 103.169H100.046V81.1243Z" fill="#E6E6E6"/>
<path fill-rule="evenodd" clip-rule="evenodd" d="M100.045 57.5188V35.4741H99.8214H44.5361L46.4924 57.5188H100.045Z" fill="#E6E6E6"/>
<path fill-rule="evenodd" clip-rule="evenodd" d="M100.046 35.4741V57.2423V57.5188H153.146L155.042 35.4741H100.046Z" fill="white"/>
</svg>
