<svg width="200" height="200" viewBox="0 0 200 200" fill="none" xmlns="http://www.w3.org/2000/svg">
<rect width="200" height="200" fill="white"/>
<path d="M102.266 99.8884C102.266 83.5247 115.531 70.2588 131.895 70.2588C148.258 70.2588 161.524 83.5247 161.524 99.8884C161.524 116.252 148.258 129.518 131.895 129.518C115.531 129.518 102.266 116.252 102.266 99.8884Z" fill="#1ABCFE"/>
<path d="M43 159.148C43 142.784 56.2655 129.519 72.6293 129.519H102.259V159.148C102.259 175.512 88.9932 188.778 72.6293 188.778C56.2655 188.778 43 175.512 43 159.148Z" fill="#0ACF83"/>
<path d="M102.266 11V70.259H131.895C148.259 70.259 161.524 56.9935 161.524 40.6295C161.524 24.2656 148.259 11 131.895 11H102.266Z" fill="#FF7262"/>
<path d="M43 40.6296C43 56.9935 56.2655 70.259 72.6293 70.259H102.259V11H72.6293C56.2655 11 43 24.2656 43 40.6296Z" fill="#F24E1E"/>
<path d="M43 99.8884C43 116.252 56.2655 129.518 72.6293 129.518H102.259V70.2588H72.6293C56.2655 70.2588 43 83.5247 43 99.8884Z" fill="#A259FF"/>
</svg>
