<svg width="72" height="75" viewBox="0 0 72 75" fill="none" xmlns="http://www.w3.org/2000/svg">
<g clip-path="url(#clip0_101_6)">
<path fill-rule="evenodd" clip-rule="evenodd" d="M0 30C0 19.499 0 14.2485 1.96188 10.2377C3.6876 6.70964 6.44125 3.84125 9.82817 2.04363C13.6786 0 18.7191 0 28.8 0H43.2C53.2809 0 58.3214 0 62.1718 2.04363C65.5587 3.84125 68.3124 6.70964 70.0381 10.2377C72 14.2485 72 19.499 72 30V45C72 55.501 72 60.7515 70.0381 64.7623C68.3124 68.2904 65.5587 71.1587 62.1718 72.9564C58.3214 75 53.2809 75 43.2 75H28.8C18.7191 75 13.6786 75 9.82817 72.9564C6.44125 71.1587 3.6876 68.2904 1.96188 64.7623C0 60.7515 0 55.501 0 45V30ZM9 37.5C9 21.968 21.0825 9.375 36 9.375C50.9107 9.375 63 21.968 63 37.5C63 49.9102 55.2712 60.457 44.469 64.1461C43.0852 64.4273 42.6128 63.5484 42.6128 62.8102C42.6128 62.5084 42.6164 61.9768 42.6214 61.2646C42.6314 59.8192 42.6465 57.6301 42.6465 55.1086C42.6465 52.4742 41.769 50.7492 40.824 49.9055C46.8315 49.2141 53.1427 46.8352 53.1427 36.0305C53.1427 32.9602 52.0965 30.4523 50.3752 28.4836C50.6453 27.7734 51.5565 24.9141 50.1052 21.0398C50.1052 21.0398 47.844 20.2852 42.714 23.9227C40.554 23.2969 38.259 22.9875 35.964 22.9734C33.669 22.9875 31.374 23.2969 29.214 23.9227C24.0503 20.2852 21.789 21.0398 21.789 21.0398C20.3378 24.9141 21.249 27.7734 21.5527 28.4836C19.8203 30.4523 18.774 32.9602 18.774 36.0305C18.774 46.807 25.0763 49.2258 31.0725 49.9289C30.3008 50.632 29.6055 51.8719 29.3625 53.6906C27.819 54.4102 23.9062 55.6523 21.4987 51.3516C21.4987 51.3516 20.0745 48.6516 17.3633 48.4547C17.3633 48.4547 14.7285 48.4195 17.1743 50.1633C17.1743 50.1633 18.9495 51.0305 20.178 54.2766C20.178 54.2766 21.762 59.7469 29.2725 58.05C29.2787 59.3515 29.2885 60.4759 29.2959 61.3329C29.3018 62.0193 29.3062 62.5342 29.3062 62.8312C29.3062 63.5789 28.8113 64.4484 27.4612 64.1836C16.7355 60.4687 9 49.9289 9 37.5Z" fill="white"/>
</g>
<defs>
<clipPath id="clip0_101_6">
<rect width="72" height="75" fill="white"/>
</clipPath>
</defs>
</svg>
