<svg width="47" height="48" viewBox="0 0 47 48" fill="none" xmlns="http://www.w3.org/2000/svg">
<g clip-path="url(#clip0_101_6)">
<path fill-rule="evenodd" clip-rule="evenodd" d="M0 19.1409C0 12.441 0 9.091 1.2556 6.53195C2.36007 4.28096 4.1224 2.45084 6.29003 1.3039C8.75429 0 11.9802 0 18.432 0H27.648C34.0998 0 37.3257 0 39.79 1.3039C41.9576 2.45084 43.7199 4.28096 44.8244 6.53195C46.08 9.091 46.08 12.441 46.08 19.1409V28.7114C46.08 35.4113 46.08 38.7613 44.8244 41.3204C43.7199 43.5713 41.9576 45.4015 39.79 46.5484C37.3257 47.8523 34.0998 47.8523 27.648 47.8523H18.432C11.9802 47.8523 8.75429 47.8523 6.29003 46.5484C4.1224 45.4015 2.36007 43.5713 1.2556 41.3204C0 38.7613 0 35.4113 0 28.7114V19.1409ZM5.76 23.9262C5.76 14.0162 13.4928 5.98154 23.04 5.98154C32.5829 5.98154 40.32 14.0162 40.32 23.9262C40.32 31.8442 35.3736 38.5734 28.4602 40.9272C27.5746 41.1066 27.2722 40.5459 27.2722 40.0748C27.2722 39.8823 27.2745 39.5431 27.2777 39.0887C27.2841 38.1665 27.2938 36.7698 27.2938 35.161C27.2938 33.4802 26.7322 32.3796 26.1274 31.8412C29.9722 31.4001 34.0114 29.8823 34.0114 22.9885C34.0114 21.0296 33.3418 19.4295 32.2402 18.1734C32.413 17.7203 32.9962 15.8959 32.0674 13.4241C32.0674 13.4241 30.6202 12.9426 27.337 15.2634C25.9546 14.8641 24.4858 14.6667 23.017 14.6578C21.5482 14.6667 20.0794 14.8641 18.697 15.2634C15.3922 12.9426 13.945 13.4241 13.945 13.4241C13.0162 15.8959 13.5994 17.7203 13.7938 18.1734C12.685 19.4295 12.0154 21.0296 12.0154 22.9885C12.0154 29.8643 16.0488 31.4076 19.8864 31.8562C19.3925 32.3048 18.9475 33.0958 18.792 34.2563C17.8042 34.7154 15.3 35.5079 13.7592 32.7639C13.7592 32.7639 12.8477 31.0412 11.1125 30.9156C11.1125 30.9156 9.42624 30.8931 10.9915 32.0057C10.9915 32.0057 12.1277 32.559 12.9139 34.6301C12.9139 34.6301 13.9277 38.1203 18.7344 37.0377C18.7384 37.8681 18.7446 38.5855 18.7494 39.1323C18.7532 39.5702 18.756 39.8987 18.756 40.0883C18.756 40.5653 18.4392 41.1201 17.5752 40.9511C10.7107 38.5809 5.76 31.8562 5.76 23.9262Z" fill="white"/>
</g>
<defs>
<clipPath id="clip0_101_6">
<rect width="46.08" height="47.8523" fill="white"/>
</clipPath>
</defs>
</svg>
