<svg width="200" height="200" viewBox="0 0 200 200" fill="none" xmlns="http://www.w3.org/2000/svg">
<path fill-rule="evenodd" clip-rule="evenodd" d="M27.7677 180.007L11.7188 0H188.069L172.003 179.979L99.7857 200L27.7677 180.007Z" fill="#E44D26"/>
<path fill-rule="evenodd" clip-rule="evenodd" d="M99.8936 184.697L158.248 168.519L171.978 14.7183H99.8936V184.697Z" fill="#F16529"/>
<path d="M70.6794 81.4804H99.8932V103.557H50.4888L44.5342 36.7957H99.8932V58.8731H68.6618L70.6794 81.4804Z" fill="#EBEBEB"/>
<path d="M99.7965 138.843L99.8932 138.817V161.787L99.7916 161.815L54.5682 149.261L51.4752 114.596H73.6372L75.209 132.204L99.7965 138.843Z" fill="#EBEBEB"/>
<path d="M99.8174 36.7957H155.121L153.144 58.8731H99.8174V36.7957Z" fill="white"/>
<path d="M99.8174 103.557V81.4804H151.135L150.597 87.4087L145.077 149.261L99.8174 161.804V138.836L124.44 132.19L127.003 103.557H99.8174Z" fill="white"/>
</svg>
