<svg width="200" height="200" viewBox="0 0 200 200" fill="none" xmlns="http://www.w3.org/2000/svg">
<path d="M157.408 13.3333H42.5928C25.2061 13.3333 11.1113 27.4287 11.1113 44.8164V155.193C11.1113 172.58 25.2061 186.676 42.5928 186.676H157.408C174.794 186.676 188.889 172.58 188.889 155.193V44.8164C188.889 27.4287 174.794 13.3333 157.408 13.3333Z" fill="#330000"/>
<path d="M97.2559 117.365H69.7071L64.102 134.778C64.0256 135.095 63.8409 135.376 63.5796 135.572C63.3184 135.768 62.997 135.867 62.6708 135.851H48.7175C47.9218 135.851 47.6435 135.414 47.8827 134.539L71.7344 65.8423C71.9731 65.1268 72.2117 64.3118 72.4502 63.3973C72.7621 61.8061 72.9219 60.1887 72.9272 58.5672C72.911 58.4538 72.9215 58.3382 72.9577 58.2295C72.9939 58.1208 73.055 58.0221 73.1359 57.9411C73.2169 57.8601 73.3157 57.799 73.4243 57.7628C73.533 57.7265 73.6486 57.7161 73.762 57.7322H92.724C93.2795 57.7322 93.5976 57.931 93.6781 58.3287L120.75 134.659C120.989 135.454 120.75 135.852 120.034 135.851H104.531C104.264 135.881 103.996 135.812 103.777 135.659C103.558 135.505 103.402 135.277 103.338 135.016L97.2559 117.365ZM74.0004 102.338H92.8433C92.3663 100.748 91.8098 98.9591 91.1738 96.9706C90.5365 94.9841 89.8607 92.8572 89.1465 90.5899C88.4307 88.324 87.7151 86.0579 86.9995 83.7917C86.2841 81.5258 85.6282 79.3393 85.0319 77.2321C84.4355 75.1264 83.8989 73.1984 83.4221 71.4479H83.3027C82.6313 74.6689 81.7954 77.8535 80.7984 80.989C79.684 84.5671 78.5509 88.2245 77.3992 91.9615C76.2458 95.6998 75.1128 99.1585 74.0004 102.338Z" fill="#FF9A00"/>
<path d="M136.87 70.3748C135.653 70.4237 134.44 70.2152 133.31 69.7631C132.18 69.3109 131.158 68.6253 130.31 67.751C129.466 66.8388 128.809 65.7686 128.38 64.6019C127.95 63.4353 127.755 62.1951 127.806 60.9528C127.762 59.7229 127.979 58.4975 128.441 57.357C128.904 56.2164 129.601 55.1861 130.489 54.3336C131.368 53.4898 132.406 52.8288 133.542 52.3886C134.678 51.9485 135.89 51.738 137.108 51.7694C139.97 51.7694 142.216 52.6241 143.846 54.3336C144.669 55.2219 145.308 56.2639 145.728 57.3997C146.147 58.5355 146.339 59.743 146.291 60.9528C146.341 62.2 146.139 63.4444 145.699 64.6122C145.259 65.7801 144.588 66.8474 143.727 67.751C142.827 68.6381 141.753 69.3292 140.573 69.7808C139.393 70.2324 138.132 70.4347 136.87 70.3748ZM128.64 134.659V77.6499C128.64 76.9344 128.957 76.5765 129.595 76.5765H144.264C144.899 76.5765 145.217 76.9343 145.218 77.6499V134.659C145.218 135.455 144.9 135.852 144.264 135.852H129.714C128.999 135.852 128.641 135.454 128.64 134.659Z" fill="#FF9A00"/>
</svg>
