<svg width="44" height="41" viewBox="0 0 44 41" fill="none" xmlns="http://www.w3.org/2000/svg">
<path d="M22 3.75833C27.8667 3.75833 28.6 3.75833 30.9833 3.92917C37.0333 4.1 39.7833 6.83333 39.9667 12.3C40.15 14.5208 40.15 15.0333 40.15 20.5C40.15 25.9667 40.15 26.65 39.9667 28.7C39.7833 34.1667 36.85 36.9 30.9833 37.0708C28.6 37.2417 28.05 37.2417 22 37.2417C16.1333 37.2417 15.4 37.2417 13.2 37.0708C7.15 36.9 4.4 34.1667 4.21667 28.7C4.03333 26.4792 4.03333 25.9667 4.03333 20.5C4.03333 15.0333 4.03333 14.35 4.21667 12.3C4.4 6.83333 7.33333 4.1 13.2 3.92917C15.4 3.75833 16.1333 3.75833 22 3.75833ZM22 0C15.95 0 15.2167 0 13.0167 0.170833C4.95 0.5125 0.55 4.6125 0.183333 12.1292C0 14.1792 0 14.8625 0 20.5C0 26.1375 0 26.8208 0.183333 28.8708C0.55 36.3875 4.95 40.4875 13.0167 40.8292C15.2167 41 15.95 41 22 41C28.05 41 28.7833 41 30.9833 40.8292C39.05 40.4875 43.45 36.3875 43.8167 28.8708C44 26.8208 44 26.1375 44 20.5C44 14.8625 44 14.1792 43.8167 12.1292C43.45 4.6125 39.05 0.5125 30.9833 0.170833C28.7833 0 28.05 0 22 0ZM22 9.90833C15.7667 9.90833 10.6333 14.6917 10.6333 20.5C10.6333 26.3083 15.7667 31.0917 22 31.0917C28.2333 31.0917 33.3667 26.3083 33.3667 20.5C33.3667 14.6917 28.2333 9.90833 22 9.90833ZM22 27.3333C17.9667 27.3333 14.6667 24.2583 14.6667 20.5C14.6667 16.7417 17.9667 13.6667 22 13.6667C26.0333 13.6667 29.3333 16.7417 29.3333 20.5C29.3333 24.2583 26.0333 27.3333 22 27.3333ZM33.7333 7.175C32.2667 7.175 31.1667 8.2 31.1667 9.56667C31.1667 10.9333 32.2667 11.9583 33.7333 11.9583C35.2 11.9583 36.3 10.9333 36.3 9.56667C36.3 8.2 35.2 7.175 33.7333 7.175Z" fill="white"/>
</svg>
