<svg width="200" height="200" viewBox="0 0 200 200" fill="none" xmlns="http://www.w3.org/2000/svg">
<path d="M157.408 13.3333H42.5928C25.2061 13.3333 11.1113 27.4287 11.1113 44.8164V155.193C11.1113 172.58 25.2061 186.676 42.5928 186.676H157.408C174.794 186.676 188.889 172.58 188.889 155.193V44.8164C188.889 27.4287 174.794 13.3333 157.408 13.3333Z" fill="#001E36"/>
<path d="M51.1377 134.888V58.6774C51.1377 58.122 51.3764 57.8425 51.8535 57.8425C53.1241 57.8425 54.2843 57.8239 56.0341 57.7828C57.7822 57.7438 59.6704 57.7041 61.6989 57.6637C63.7266 57.6244 65.8733 57.5846 68.1392 57.5443C70.4048 57.5052 72.6508 57.4853 74.8771 57.4846C80.9184 57.4846 86.0068 58.24 90.1422 59.7507C93.8726 61.0126 97.2746 63.0906 100.101 65.8332C102.496 68.2105 104.347 71.0793 105.527 74.2415C106.642 77.319 107.208 80.5689 107.197 83.8424C107.197 90.2045 105.726 95.4522 102.784 99.5854C99.8228 103.736 95.6604 106.878 90.858 108.59C85.849 110.459 80.2829 111.093 74.1617 111.093C72.4119 111.093 71.1795 111.073 70.4645 111.033C69.7491 110.994 68.6758 110.974 67.2448 110.974V134.769C67.2656 134.915 67.2521 135.063 67.2055 135.203C67.1589 135.343 67.0805 135.47 66.9763 135.574C66.8722 135.678 66.7452 135.757 66.6055 135.803C66.4657 135.85 66.3171 135.863 66.1713 135.842H51.9725C51.4155 135.842 51.1377 135.525 51.1377 134.888ZM67.2447 72.1543V97.0112C68.277 97.0913 69.231 97.131 70.1068 97.1304H74.0423C76.938 97.1208 79.8147 96.6615 82.5695 95.7691C84.9322 95.0672 87.0434 93.7011 88.6517 91.8333C90.2019 90.0052 90.9771 87.4609 90.9774 84.2003C91.0402 81.8933 90.4399 79.6166 89.2477 77.6405C87.9945 75.7298 86.1831 74.2515 84.06 73.4067C81.2879 72.3291 78.3268 71.8221 75.3542 71.916C73.4459 71.916 71.7564 71.9358 70.2858 71.9754C68.8137 72.0165 67.8 72.0761 67.2447 72.1543Z" fill="#31A8FF"/>
<path d="M153.309 92.4893C151.067 91.3376 148.68 90.495 146.213 89.9846C143.494 89.3607 140.714 89.0407 137.924 89.0304C136.415 88.9895 134.908 89.1704 133.452 89.5672C132.525 89.7737 131.701 90.3018 131.126 91.058C130.738 91.6628 130.531 92.3666 130.53 93.0855C130.552 93.7831 130.803 94.4539 131.246 94.9937C131.942 95.8087 132.793 96.4775 133.75 96.9616C135.45 97.8774 137.202 98.6937 138.997 99.4066C143 100.746 146.824 102.569 150.387 104.833C152.813 106.365 154.821 108.475 156.23 110.975C157.415 113.343 158.009 115.962 157.96 118.608C158.031 122.103 157.032 125.537 155.098 128.448C153.026 131.403 150.149 133.701 146.809 135.067C143.19 136.657 138.718 137.452 133.392 137.452C130.009 137.487 126.631 137.167 123.315 136.498C120.702 136.019 118.158 135.218 115.742 134.113C115.481 133.978 115.264 133.772 115.116 133.519C114.968 133.265 114.896 132.975 114.907 132.682V119.801C114.893 119.675 114.913 119.547 114.965 119.432C115.018 119.316 115.101 119.217 115.205 119.145C115.308 119.087 115.425 119.062 115.543 119.072C115.66 119.083 115.771 119.129 115.861 119.205C118.714 120.887 121.813 122.115 125.044 122.842C127.892 123.556 130.814 123.936 133.75 123.975C136.532 123.975 138.579 123.618 139.892 122.902C140.484 122.631 140.986 122.193 141.335 121.643C141.684 121.093 141.867 120.453 141.86 119.801C141.86 118.769 141.263 117.775 140.071 116.819C138.878 115.865 136.453 114.712 132.796 113.361C129.051 112.057 125.501 110.252 122.241 107.994C119.91 106.372 117.991 104.228 116.636 101.732C115.463 99.3821 114.87 96.7852 114.907 94.1589C114.9 91.0033 115.767 87.9074 117.411 85.214C119.286 82.248 121.978 79.8873 125.163 78.4158C128.661 76.6679 133.034 75.7933 138.282 75.792C141.355 75.7673 144.426 75.9866 147.465 76.448C149.665 76.7271 151.817 77.309 153.858 78.1773C154.02 78.2238 154.169 78.3072 154.293 78.421C154.417 78.5349 154.513 78.676 154.573 78.8332C154.654 79.1245 154.694 79.4255 154.693 79.7278V91.7736C154.701 91.9138 154.672 92.0536 154.61 92.1792C154.547 92.3048 154.452 92.4117 154.335 92.4892C154.176 92.5685 154 92.6098 153.822 92.6098C153.644 92.6098 153.468 92.5686 153.309 92.4893Z" fill="#31A8FF"/>
</svg>
